<svg width="24" height="24" viewBox="0 0 24 24" fill="none" xmlns="http://www.w3.org/2000/svg">
<path d="M22 12.0367C22 6.49365 17.5228 2 12 2C6.4772 2 2 6.49365 2 12.0367C2 16.7436 5.2288 20.6932 9.5844 21.778V15.104H7.5224V12.0367H9.5844V10.7151C9.5844 7.29899 11.1248 5.7156 14.4664 5.7156C15.1 5.7156 16.1932 5.84046 16.6404 5.96491V8.74509C16.4044 8.7202 15.9944 8.70775 15.4852 8.70775C13.8456 8.70775 13.212 9.33123 13.212 10.952V12.0367H16.4784L15.9172 15.104H13.212V22C18.1636 21.3998 22 17.1683 22 12.0367Z" fill="#465A69"/>
</svg>
