<svg width="24" height="24" viewBox="0 0 24 24" fill="none" xmlns="http://www.w3.org/2000/svg">
<path fill-rule="evenodd" clip-rule="evenodd" d="M12.0001 7.20728C9.35307 7.20728 7.20728 9.35307 7.20728 12.0001C7.20728 14.647 9.35307 16.7929 12.0001 16.7929C14.6471 16.7929 16.7929 14.647 16.7929 12.0001C16.7929 9.35307 14.6471 7.20728 12.0001 7.20728ZM11.9999 15.1111C10.2817 15.1111 8.88884 13.7183 8.88884 12C8.88884 10.2818 10.2817 8.88884 11.9999 8.88884C13.7181 8.88884 15.111 10.2818 15.111 12C15.111 13.7183 13.7181 15.1111 11.9999 15.1111Z" fill="#465A69"/>
<path d="M16.9821 8.13762C17.6008 8.13762 18.1021 7.63625 18.1021 7.01762C18.1021 6.399 17.6008 5.89762 16.9821 5.89762C16.3635 5.89762 15.8621 6.399 15.8621 7.01762C15.8621 7.63625 16.3635 8.13762 16.9821 8.13762Z" fill="#465A69"/>
<path fill-rule="evenodd" clip-rule="evenodd" d="M11.9998 2.6665C9.46511 2.6665 9.14719 2.6773 8.15173 2.72265C7.15832 2.768 6.4799 2.9258 5.88607 3.1565C5.2724 3.39494 4.75192 3.71417 4.23305 4.23305C3.71417 4.75192 3.39494 5.2724 3.1565 5.88607C2.9258 6.4799 2.768 7.15832 2.72265 8.15173C2.6773 9.14719 2.6665 9.46511 2.6665 11.9998C2.6665 14.5346 2.6773 14.8525 2.72265 15.8479C2.768 16.8414 2.9258 17.5198 3.1565 18.1136C3.39494 18.7273 3.71417 19.2478 4.23305 19.7666C4.75192 20.2855 5.2724 20.6047 5.88607 20.8432C6.4799 21.0739 7.15832 21.2317 8.15173 21.277C9.14719 21.3224 9.46511 21.3332 11.9998 21.3332C14.5346 21.3332 14.8525 21.3224 15.8479 21.277C16.8414 21.2317 17.5198 21.0739 18.1136 20.8432C18.7273 20.6047 19.2478 20.2855 19.7666 19.7666C20.2855 19.2478 20.6047 18.7273 20.8432 18.1136C21.0739 17.5198 21.2317 16.8414 21.277 15.8479C21.3224 14.8525 21.3332 14.5346 21.3332 11.9998C21.3332 9.46511 21.3224 9.14719 21.277 8.15173C21.2317 7.15832 21.0739 6.4799 20.8432 5.88607C20.6047 5.2724 20.2855 4.75192 19.7666 4.23305C19.2478 3.71417 18.7273 3.39494 18.1136 3.1565C17.5198 2.9258 16.8414 2.768 15.8479 2.72265C14.8525 2.6773 14.5346 2.6665 11.9998 2.6665ZM11.9999 4.34831C14.492 4.34831 14.7872 4.35779 15.7713 4.4027C16.6813 4.44412 17.1755 4.59622 17.5044 4.72397C17.9401 4.89329 18.251 5.09556 18.5776 5.42222C18.9042 5.74875 19.1065 6.05966 19.2758 6.49541C19.4036 6.82427 19.5557 7.3185 19.5971 8.22835C19.642 9.21258 19.6515 9.50775 19.6515 11.9999C19.6515 14.492 19.642 14.7872 19.5971 15.7713C19.5557 16.6813 19.4036 17.1755 19.2758 17.5044C19.1065 17.9401 18.9042 18.251 18.5776 18.5776C18.251 18.9042 17.9401 19.1065 17.5044 19.2758C17.1755 19.4036 16.6813 19.5557 15.7713 19.5971C14.7874 19.642 14.4922 19.6515 11.9999 19.6515C9.5076 19.6515 9.21243 19.642 8.2285 19.5971C7.3185 19.5557 6.82427 19.4036 6.49541 19.2758C6.05966 19.1065 5.74875 18.9042 5.42222 18.5776C5.09556 18.251 4.89329 17.9401 4.72397 17.5044C4.59622 17.1755 4.44412 16.6813 4.4027 15.7714C4.35779 14.7872 4.34831 14.492 4.34831 11.9999C4.34831 9.50775 4.35779 9.21258 4.4027 8.2285C4.44412 7.3185 4.59622 6.82427 4.72397 6.49541C4.89329 6.05966 5.09556 5.74875 5.42222 5.42222C5.74875 5.09556 6.05966 4.89329 6.49541 4.72397C6.82427 4.59622 7.3185 4.44412 8.22835 4.4027C9.21258 4.35779 9.50775 4.34831 11.9999 4.34831Z" fill="#465A69"/>
</svg>
