<svg width="24" height="24" viewBox="0 0 24 24" fill="none" xmlns="http://www.w3.org/2000/svg">
<path fill-rule="evenodd" clip-rule="evenodd" d="M19.8068 5.37504C20.6705 5.61368 21.3523 6.2955 21.5795 7.15913C22 8.72732 22 12 22 12C22 12 22 15.2727 21.5909 16.8409C21.3523 17.7159 20.6818 18.3977 19.8182 18.625C18.25 19.0455 12 19.0455 12 19.0455C12 19.0455 5.75 19.0455 4.19318 18.625C3.32955 18.3864 2.64773 17.7046 2.42045 16.8409C2 15.2727 2 12 2 12C2 12 2 8.72732 2.40909 7.15913C2.64773 6.28413 3.31818 5.60232 4.18182 5.37504C5.75 4.95459 12 4.95459 12 4.95459C12 4.95459 18.25 4.95459 19.8068 5.37504ZM15.1819 12L9.95459 14.9773V9.02277L15.1819 12Z" fill="#465A69"/>
</svg>
